<?xml version="1.0" encoding="utf-8"?>
<!-- Generator: Adobe Illustrator 23.0.5, SVG Export Plug-In . SVG Version: 6.00 Build 0)  -->
<svg version="1.1" id="Layer_1" xmlns="http://www.w3.org/2000/svg" xmlns:xlink="http://www.w3.org/1999/xlink" x="0px" y="0px"
	 viewBox="0 0 317.4 82.44" style="enable-background:new 0 0 317.4 82.44;" xml:space="preserve">
<style type="text/css">
	.st0{fill:#FFFFFF;}
	.st1{fill:#F8C247;}
</style>
<path class="st0" d="M217.84,14.45c-9.51-1.55-19.21-0.59-28.81-0.44c-3.87,0.06-7.37,3.54-7.9,7.42
	c-0.79,5.82-0.67,11.73-0.1,17.57c0.37,3.81,3.62,6.14,7.38,5.98c3.51-0.15,6.39-2.7,6.86-6.26c0.21-1.6,0.07-3.24,0.11-4.87
	c0.1-4.08,2.12-6.21,6.22-6.34c3.25-0.11,6.5-0.08,9.75-0.01c8.12,0.16,13.95,5.39,14.03,12.54c0.08,7.33-5.43,12.3-13.88,12.43
	c-8.62,0.13-17.24,0.21-25.86,0.26c-6.95,0.04-8.13-0.95-9.81-7.57c-2.17-8.58-4.37-17.14-6.64-25.69
	c-0.94-3.54-3.11-5.94-6.94-6.39c-3.81-0.45-6.63,1.22-8.29,4.52c-5.09,10.11-10.56,20.04-14.93,30.51
	c-1.81-1.83-2.29-4.42-3.7-6.49c-1.56-4.23-3.83-8.11-6.07-12c-1.88-4.89-4.14-9.57-7.29-13.78c-1.68-2.42-4.03-3.12-6.83-2.63
	c-4.05,0.37-6.11,2.81-6.88,6.6c-2.16,6.57-3.86,13.27-5.22,20.06c0,0,0,0,0,0c-0.68,2.2-1.51,4.37-2.02,6.61
	c-0.56,2.49-1.32,4.72-3.92,5.77c0,0,0,0,0,0c0,0,0,0,0,0c-7.06,0.04-14.12,0.1-21.18,0.11c-4.19,0.01-8.43,0.41-12.49-1.09
	c-6.89-4.52-7.75-9.4-6.08-15.6c0.36-1.35,1.79-2.16,1.59-3.69c1.79-0.59,3-2.02,4.45-3.09c3.4-1.22,6.95-1.4,10.5-1.56
	c3.75,0,7.5,0,11.25,0c1.73,0.05,3.47,0.22,5.18,0.11c3.67-0.23,6.12-2.91,6.2-6.56c0.08-3.78-2.44-6.7-6.19-6.98
	c-1.72-0.13-3.46,0.05-5.19,0.09c-3.75,0-7.5,0-11.25,0c-3.78-0.26-7.56-0.35-11.25,0.76c-1.62,0.11-3.12,0.6-4.51,1.43v0l0,0
	c-1.46,0.1-2.57,0.96-3.73,1.71c0,0,0,0,0,0c-16.28,9.13-16.28,33.56,0,43.75c2.51,1.65,5.13,3.04,8.2,3.34
	c0.33,0.17,0.65,0.45,0.99,0.48c14.18,1.24,28.4,0.63,42.6,0.58c0.21,0,0.42-0.25,0.63-0.38c0,0,0,0,0,0
	c2.39-0.62,3.94-2.06,4.4-4.54c0.23-1.06,0.42-2.13,0.69-3.18c1.74-6.65,3.75-13.23,4.67-20.07c0.44-0.91-0.33-2.34,1.24-2.77
	c0.81,1.48,1.64,2.99,2.46,4.49c1.97,5.06,4.22,9.98,6.88,14.72c1.68,3.73,2.63,7.87,5.93,10.7c2.2,2.22,4.74,2.44,7.43,1.67
	c0.28-0.05,0.58-0.13,0.89-0.28c0,0,0,0,0,0h0c2.14-0.17,3.34-1.69,4.24-3.3c1.51-2.71,2.79-5.56,4.11-8.38
	c3.08-6.55,6.14-13.11,9.44-20.16c1.95,8.24,3.72,15.89,5.57,23.52c1.31,5.38,4.24,7.91,9.38,7.93c13.12,0.06,26.25,0.19,39.37-0.03
	c13.67-0.23,24.98-10.5,26.08-23.25C240.87,27.92,232.63,16.87,217.84,14.45z"/>
<g>
	<path class="st1" d="M20.59,67.13L4.7,40.02l15.9-27.1h16.84l-15.98,27.1l15.98,27.1H20.59z"/>
</g>
<g>
	<path class="st1" d="M296.35,13.92l15.9,27.1l-15.9,27.1h-16.84l15.98-27.1l-15.98-27.1H296.35z"/>
</g>
<g>
	<path class="st1" d="M279.32,6.44l-36.52,70.3l-12.7-2.7l36.52-70.3L279.32,6.44z"/>
</g>
</svg>
